<svg width="158" height="158" viewBox="0 0 158 158" fill="none" xmlns="http://www.w3.org/2000/svg">
<mask id="mask0_1725_2" style="mask-type:alpha" maskUnits="userSpaceOnUse" x="0" y="0" width="158" height="158">
<circle cx="78.8096" cy="78.8096" r="77.7226" fill="#C4C4C4" stroke="#F8BB54" stroke-width="2.17406"/>
</mask>
<g mask="url(#mask0_1725_2)">
<path d="M-45.8003 33.0512C-45.8003 33.0512 -9.10194 26.2531 0.366698 2.46021C9.42217 -20.348 46.7244 -26.4787 46.7244 -26.4787" stroke="#2C698D" stroke-width="2.44371" stroke-miterlimit="10"/>
<path d="M-45.8003 44.4868C-45.8003 44.4868 -0.777151 36.6407 10.8202 7.92402C21.8774 -19.4903 67.5995 -26.4787 67.5995 -26.4787" stroke="#2C698D" stroke-width="2.44371" stroke-miterlimit="10"/>
<path d="M-45.8003 55.9545C-45.8003 55.9545 7.51574 47.0283 21.2419 13.4514C34.3326 -18.6642 88.4749 -26.4787 88.4749 -26.4787" stroke="#2C698D" stroke-width="2.44371" stroke-miterlimit="10"/>
<path d="M-45.8003 67.3904C-45.8003 67.3904 15.8404 57.4159 31.6954 18.9152C46.7879 -17.8065 109.35 -26.4787 109.35 -26.4787" stroke="#2C698D" stroke-width="2.44371" stroke-miterlimit="10"/>
<path d="M-45.8003 78.8263C-45.8003 78.8263 24.1651 67.8034 42.1489 24.4107C59.243 -16.9488 130.194 -26.4787 130.194 -26.4787" stroke="#2C698D" stroke-width="2.44371" stroke-miterlimit="10"/>
<path d="M-45.8003 90.2937C-45.8003 90.2937 32.458 78.2226 52.5707 29.9061C71.73 -16.123 151.069 -26.4787 151.069 -26.4787" stroke="#2C698D" stroke-width="2.44371" stroke-miterlimit="10"/>
<path d="M-45.8003 101.73C-45.8003 101.73 40.7827 88.5783 63.0242 35.4018C84.1854 -15.2653 171.944 -26.4787 171.944 -26.4787" stroke="#2C698D" stroke-width="2.44371" stroke-miterlimit="10"/>
<path d="M-45.8003 113.165C-45.8003 113.165 49.1074 98.9659 73.4458 40.8657C96.6405 -14.4076 192.819 -26.4787 192.819 -26.4787" stroke="#2C698D" stroke-width="2.44371" stroke-miterlimit="10"/>
<path d="M-45.8003 124.633C-45.8003 124.633 57.4002 109.385 83.8994 46.3928C109.096 -13.5818 213.663 -26.4787 213.663 -26.4787" stroke="#2C698D" stroke-width="2.44371" stroke-miterlimit="10"/>
<path d="M-45.8003 136.068C-45.8003 136.068 65.725 119.773 94.3213 51.8885C121.551 -12.7241 234.538 -26.4787 234.538 -26.4787" stroke="#2C698D" stroke-width="2.44371" stroke-miterlimit="10"/>
<path d="M-45.8003 147.536C-45.8003 147.536 74.0496 130.16 104.775 57.384C134.006 -11.8664 255.413 -26.4787 255.413 -26.4787" stroke="#2C698D" stroke-width="2.44371" stroke-miterlimit="10"/>
<path d="M-45.8003 158.973C-45.8003 158.973 82.3425 140.548 115.196 62.8797C146.462 -11.0403 276.288 -26.4787 276.288 -26.4787" stroke="#2C698D" stroke-width="2.44371" stroke-miterlimit="10"/>
<path d="M-45.8003 170.407C-45.8003 170.407 90.6671 150.936 125.65 68.3433C158.917 -10.1826 297.163 -26.4787 297.163 -26.4787" stroke="#2C698D" stroke-width="2.44371" stroke-miterlimit="10"/>
<path d="M-45.8003 181.875C-45.8003 181.875 98.992 161.323 136.103 73.8706C171.372 -9.32492 318.007 -26.4787 318.007 -26.4787" stroke="#2C698D" stroke-width="2.44371" stroke-miterlimit="10"/>
<path d="M-45.8003 193.312C-45.8003 193.312 107.285 171.711 146.525 79.3344C183.827 -8.4991 338.882 -26.4787 338.882 -26.4787" stroke="#2C698D" stroke-width="2.44371" stroke-miterlimit="10"/>
<path d="M-45.8003 204.748C-45.8003 204.748 115.61 182.098 156.979 84.8299C196.283 -7.64139 359.758 -26.4787 359.758 -26.4787" stroke="#2C698D" stroke-width="2.44371" stroke-miterlimit="10"/>
<path d="M-45.8003 216.216C-45.8003 216.216 123.934 192.517 167.4 90.3256C208.738 -6.78369 380.633 -26.4787 380.633 -26.4787" stroke="#2C698D" stroke-width="2.44371" stroke-miterlimit="10"/>
<path d="M-45.8003 227.651C-45.8003 227.651 132.227 202.874 177.854 95.8211C221.193 -5.95789 401.477 -26.4787 401.477 -26.4787" stroke="#2C698D" stroke-width="2.44371" stroke-miterlimit="10"/>
</g>
</svg>
