<svg width="264" height="49" viewBox="0 0 264 49" fill="none" xmlns="http://www.w3.org/2000/svg">
<path d="M60.8079 38.5695C56.6054 33.6378 49.9403 23.0607 46.7435 17.9132C43.5466 12.7658 31.0595 24.2955 31.0595 24.2955C21.5162 31.3261 12.0437 40.7636 7.36323 45.6915C5.85712 47.4296 3.22335 47.6176 1.48569 46.1115C-0.251976 44.6054 -0.439999 41.9717 1.0661 40.234C6.22982 33.7048 17.5543 20.191 28.4769 11.7711C34.9262 6.79972 41.4893 3.86166 46.7435 3.65546C49.582 3.55451 52.4047 4.68505 55.1462 6.93942C59.2669 10.3277 63.4642 17.7348 68.1351 24.6175C69.7891 27.0546 71.4846 29.4358 73.4199 31.3237C74.8982 32.7661 76.4206 34.0172 78.3061 34.3325C82.6589 35.0755 86.2304 32.9412 89.6258 30.0281C95.6799 24.8342 101.119 17.2989 106.903 11.4219C112.382 5.85482 118.235 1.68432 124.843 0.716452C131.08 -0.316005 135.527 1.90775 139.206 5.92514C142.527 9.55166 145.042 15.2704 148.013 20.9895C150.703 26.169 153.755 31.6031 160.289 32.946C165.473 34.0909 169.752 32.4848 173.668 29.8635C180.619 25.2112 186.571 17.7008 192.97 11.7022C198.746 6.28684 204.89 2.01157 211.798 0.510726C215.099 -0.206922 219.087 0.909259 223.14 4.61232C227.158 8.28142 232.141 15.5086 239.816 19.016C243.847 20.858 248.721 21.4536 254.725 19.492C258.146 18.3515 261.85 20.2035 262.991 23.6247C264.132 27.0465 262.28 30.7505 258.858 31.8911C249.031 35.2315 241.019 34.1005 234.358 31.1557C226.403 27.6388 220.492 21.1713 215.895 16.5325C210.698 11.2871 203.5 20.6404 199.386 24.851C193.599 30.7754 187.879 37.216 181.447 41.5057C174.394 46.2086 166.555 48.5812 157.249 46.4431C152.487 45.2872 148.67 43.1113 145.559 40.2139C139.13 34.2254 135.979 24.9567 132.359 17.9132C130.893 15.0608 129.827 12.2199 126.68 12.6576C120.585 13.659 116.028 19.4461 111.241 25.2892C105.305 32.5355 99.392 40.2431 92.5203 44.4739C87.6173 47.4923 82.2398 48.8864 76.1948 48.0578C70.3168 47.2253 65.1487 43.6639 60.8079 38.5695Z" fill="#2C698D"/>
</svg>
