<svg width="774" height="27" viewBox="0 0 774 27" fill="none" xmlns="http://www.w3.org/2000/svg">
<path d="M16.793 13.5707C22.8529 13.5707 29.2015 13.4293 35.2614 13.288C37.8586 13.288 40.1671 13.1466 42.7643 13.1466C53.7299 12.8639 64.6955 12.5812 75.6612 12.2984C88.9354 12.0157 101.921 11.5916 115.195 11.3089C133.952 10.7435 152.709 10.3194 171.466 9.75393C175.795 9.61256 180.123 9.61257 184.452 9.4712C195.418 9.18848 206.383 8.90576 217.349 8.7644C228.315 8.48167 239.28 8.19895 250.246 8.05759C254.574 7.91623 258.903 7.77487 263.232 7.77487C280.546 7.49215 298.148 7.20942 315.463 6.9267C326.14 6.78534 336.817 6.64398 347.782 6.36126C352.111 6.36126 356.151 6.21989 360.48 6.21989C377.217 6.07853 394.242 5.93717 410.979 5.79581C427.716 5.65445 444.165 5.51309 460.902 5.37173C465.23 5.37173 469.559 5.37173 474.176 5.37173C485.142 5.37173 495.819 5.37173 506.784 5.37173C523.81 5.37173 540.547 5.37173 557.573 5.23037C563.055 5.23037 568.538 5.23037 574.021 5.23037C585.564 5.23037 597.107 5.23037 608.649 5.23037C609.515 5.23037 610.669 5.23037 611.535 5.23037C585.564 5.37173 559.304 5.51309 533.333 5.79581C522.367 5.93717 511.69 5.93717 500.724 6.07853C496.107 6.07853 491.202 6.07853 486.585 6.21989C470.713 6.36126 455.13 6.64398 439.259 6.78534C421.079 7.06806 402.899 7.20942 384.719 7.49215C381.545 7.49215 378.659 7.63351 375.485 7.63351C365.674 7.91623 356.151 8.05759 346.34 8.34031C326.717 8.7644 307.094 9.18848 287.471 9.61256C284.586 9.61256 281.7 9.75393 278.814 9.89529C269.291 10.178 259.48 10.6021 249.957 10.8848C232.643 11.4503 215.618 12.0157 198.303 12.5812C193.686 12.7225 188.781 13.0052 184.163 13.1466C173.198 13.5707 162.232 13.9948 151.266 14.5602C137.415 15.1257 123.275 15.6911 109.424 16.2565C90.0897 17.1047 70.4669 17.9529 51.1328 18.801C46.5157 18.9424 41.8985 19.2251 36.9929 19.3665C28.6243 19.7906 20.2558 20.2147 11.8873 20.6387C11.0216 20.6387 10.1559 20.9215 10.1559 21.4869C10.1559 21.911 11.0216 22.3351 11.8873 22.3351C15.0616 22.3351 17.9473 22.4764 21.1215 22.4764C20.5444 23.1832 20.2558 23.6073 20.2558 24.0314C20.2558 25.5864 22.8529 27 26.3158 27C50.2671 26.2932 73.9298 25.445 97.8811 24.8796C118.658 24.4555 139.435 23.8901 160.212 23.466C183.009 22.9005 206.095 22.3351 228.892 21.911C236.106 21.7696 243.32 21.6283 250.534 21.3455C252.554 21.3455 254.574 21.2042 256.883 21.2042C293.82 20.7801 330.757 20.2147 367.694 19.7906C387.316 19.5079 407.228 19.2251 426.851 19.0838C434.065 18.9424 440.99 18.9424 448.205 18.801C486.007 18.5183 523.81 18.2356 561.613 17.9529C577.773 17.8115 593.932 17.6702 610.092 17.5288C623.944 17.3874 637.795 17.3874 651.646 17.1047C663.189 16.9633 674.443 16.6806 685.986 16.5393C691.758 16.3979 697.529 16.3979 703.012 16.2565C715.997 15.8325 728.983 15.4084 741.969 14.9843C741.103 15.5497 741.103 16.3979 741.392 16.9634C741.68 17.6702 742.546 18.2356 743.989 18.5183C745.143 18.801 746.874 19.0838 748.029 18.801C750.914 18.2356 753.8 17.6702 756.397 17.1047C756.397 17.1047 756.397 17.1047 756.109 17.1047C756.397 17.1047 756.397 16.9634 756.686 16.9634C756.974 16.9634 757.263 16.822 757.263 16.822H756.974C758.417 16.5393 759.86 16.2565 761.591 15.8325C763.034 15.5497 764.766 15.1257 766.209 14.8429C767.94 14.4188 769.383 13.9948 771.114 13.5707C772.846 13.1466 774 12.0157 774 11.0262C774 10.4607 773.711 10.0366 773.134 9.4712C772.557 8.90576 771.114 8.19895 769.671 8.05759C768.229 7.91623 766.786 7.77487 765.343 7.77487C765.054 7.77487 764.766 7.77487 764.477 7.77487C763.611 7.77487 762.457 7.77487 761.591 7.91623C759.283 8.05759 757.263 8.19895 754.954 8.19895C753.223 8.19895 751.492 8.34031 749.472 8.34031C744.566 8.48167 739.949 8.62304 735.043 8.90576C733.889 8.90576 732.446 9.04712 731.292 9.04712C731.869 8.7644 732.157 8.48167 732.157 8.19895C732.446 7.91623 732.446 7.63351 732.446 7.35078C732.446 7.20942 732.446 6.9267 732.734 6.78534C732.734 6.50262 732.734 6.21989 732.446 6.07853C732.446 6.07853 732.734 6.07853 732.734 5.93717C733.6 5.65445 734.466 5.37173 735.043 4.80628C735.62 4.3822 735.909 3.81675 735.909 3.25131C735.909 2.68586 735.62 2.26178 735.043 1.69634C734.754 1.55497 734.466 1.27225 734.177 1.13089C733.312 0.706806 732.446 0.565445 731.58 0.424084C729.849 0.141361 727.829 0 725.809 0C724.077 0 722.635 0 720.903 0C718.595 0 716.286 0 713.977 0C710.803 0 707.34 0 704.166 0C695.509 0 686.852 0 678.195 0C670.115 0 661.746 0 653.666 0C646.164 0 638.949 0 631.447 0C601.724 0 572.29 0.141361 542.567 0.282723C520.347 0.424084 498.127 0.565445 475.907 0.565445C466.096 0.565445 455.996 0.706806 446.185 0.848168C423.965 1.13089 401.745 1.27225 379.525 1.55497C373.177 1.55497 366.828 1.69634 360.48 1.69634C356.728 1.69634 353.265 1.8377 349.514 1.8377C327.583 2.26178 305.651 2.68586 283.72 3.10995C277.083 3.25131 270.446 3.39267 263.52 3.53403C259.769 3.53403 256.017 3.67539 252.266 3.81675C230.335 4.3822 208.692 4.94764 186.761 5.51309C175.506 5.79581 164.252 6.07853 152.998 6.50262C133.664 7.06806 114.33 7.63351 95.2839 8.34031C78.5469 8.90576 61.8099 9.32984 45.0728 9.75393C42.4757 9.89529 39.8786 9.89529 36.9929 10.0366C32.6643 10.178 28.3358 10.178 24.0072 10.3194C20.2558 10.8848 16.2158 10.8848 12.4644 10.8848C12.1759 10.3194 11.0216 9.89529 10.1559 10.0366C7.55874 10.0366 5.25018 10.178 2.65306 10.3194C1.49878 10.4607 0.344499 10.7435 0.0559291 11.3089C-0.232641 12.0157 0.633069 12.7225 1.78735 12.8639C2.94163 13.0052 4.09591 13.1466 5.25018 13.288C6.40446 13.4293 7.27017 13.4293 8.42445 13.4293C11.3101 13.5707 13.9073 13.5707 16.793 13.5707ZM692.046 9.04712C695.509 9.04712 699.26 9.04712 702.723 9.04712C703.012 9.4712 703.589 9.75393 704.166 10.0366C702.723 10.0366 701.28 10.178 700.126 10.178C697.529 10.178 694.932 10.3194 692.335 10.3194C680.792 10.4607 669.538 10.7435 657.995 10.8848C652.801 11.0262 647.606 11.1675 642.412 11.1675C634.332 11.1675 625.964 11.3089 617.884 11.3089C599.127 11.4503 580.658 11.5916 561.901 11.733C525.541 12.0157 489.47 12.2984 453.11 12.5812C427.139 12.7225 401.168 13.1466 375.197 13.5707C336.24 14.1361 296.994 14.5602 258.037 15.1257C250.246 15.267 242.455 15.4084 234.663 15.6911C212.443 16.2565 190.223 16.6806 168.004 17.2461C146.361 17.8115 124.429 18.2356 102.787 18.801C100.767 18.801 98.7468 18.9424 96.7268 18.9424C102.498 18.6597 108.558 18.5183 114.33 18.2356C134.818 17.5288 155.306 16.6806 175.795 15.9738C183.009 15.6911 190.223 15.4084 197.149 15.1257C200.9 14.9843 204.652 14.8429 208.115 14.8429C229.757 14.2775 251.112 13.5707 272.466 13.0052C276.506 12.8639 280.834 12.7225 284.874 12.5812C290.934 12.4398 296.994 12.2984 302.766 12.2984C324.697 11.8743 346.628 11.4503 368.559 11.0262C373.465 10.8848 378.371 10.8848 382.988 10.7435C384.142 10.7435 385.585 10.7435 386.739 10.7435C390.202 10.7435 393.665 10.7435 396.839 10.6021C418.771 10.3194 440.99 10.178 462.922 9.89529C473.022 9.75393 483.122 9.61256 493.222 9.61256C525.83 9.4712 558.727 9.32984 591.335 9.18848C625.387 9.18848 658.861 9.04712 692.046 9.04712Z" fill="#BAE8E8"/>
</svg>
